# xmcd CD database file
#
# Track frame offsets:
#	150
#	16674
#	31542
#	45953
#	60395
#	78877
#	95427
#	113055
#	129728
#	147021
#	161074
#
# Disc length: 2364 seconds
#
# Revision: 0
# Processed by: cddbd v1.5.2PL0 Copyright (c) Steve Scherf et al.
# Submitted via: CDex 1.70beta2
#
DISCID=75093a0b
DTITLE=Hanna, Greg - Cdn. - ON - Greg Hanna
DYEAR=2007
DGENRE=Country
TTITLE0=Singin' to the Radio
TTITLE1=Song In My Head
TTITLE2=Blame It On Me
TTITLE3=Love You For Life
TTITLE4=Better Days Comin'
TTITLE5=She Breaks Horses Too
TTITLE6=She's Gone Hollywood
TTITLE7=Anyone Else But You
TTITLE8=What Kine of Love
TTITLE9=I Like A Woman(Who Knows What She Likes)
TTITLE10=Santa Clause Has Been Cloned
EXTD=YEAR: 2007
EXTT0=
EXTT1=
EXTT2=
EXTT3=
EXTT4=
EXTT5=
EXTT6=
EXTT7=
EXTT8=
EXTT9=
EXTT10=
PLAYORDER=
